<svg width="105" height="35" viewBox="0 0 105 35" fill="none" xmlns="http://www.w3.org/2000/svg">
<path d="M12.256 12.648H8.896V29H4.92V12.648H1.56V9.064H12.256V12.648ZM25.7765 29H16.5925V9.064H25.7765V12.648H20.5685V17.156H25.0485V20.74H20.5685V25.416H25.7765V29ZM42.0456 29H38.6576L34.4296 19.256V29H30.4536V9.064H33.9256L38.0696 18.808V9.064H42.0456V29ZM57.0932 12.648H53.7332V29H49.7572V12.648H46.3972V9.064H57.0932V12.648ZM72.6857 23.148C72.6857 24.3053 72.583 25.22 72.3777 25.892C72.191 26.564 71.8457 27.1613 71.3417 27.684C70.5017 28.5613 69.1204 29 67.1977 29H61.4297V9.064H67.1977C69.083 9.064 70.4737 9.49333 71.3697 10.352C71.855 10.8187 72.191 11.36 72.3777 11.976C72.583 12.5733 72.6857 13.4133 72.6857 14.496C72.6857 16.008 72.3217 17.128 71.5937 17.856C71.3137 18.136 71.0057 18.36 70.6697 18.528C71.0617 18.7333 71.3697 18.9667 71.5937 19.228C72.3217 19.9747 72.6857 21.2813 72.6857 23.148ZM68.2617 24.828C68.5604 24.436 68.7097 23.7733 68.7097 22.84C68.7097 21.9067 68.5604 21.244 68.2617 20.852C67.963 20.46 67.431 20.264 66.6657 20.264H65.4057V25.416H66.6657C67.4497 25.416 67.9817 25.22 68.2617 24.828ZM68.7097 14.776C68.7097 14.0107 68.5697 13.4693 68.2897 13.152C68.0097 12.816 67.487 12.648 66.7217 12.648H65.4057V16.904H66.7217C67.4684 16.904 67.9817 16.736 68.2617 16.4C68.5604 16.064 68.7097 15.5227 68.7097 14.776ZM88.5877 13.852C88.7744 15.0467 88.8677 16.7733 88.8677 19.032C88.8677 21.2907 88.7744 23.0267 88.5877 24.24C88.4197 25.4347 88.0184 26.424 87.3837 27.208C86.301 28.552 84.845 29.224 83.0157 29.224C81.1864 29.224 79.7304 28.552 78.6477 27.208C78.013 26.424 77.6024 25.4347 77.4157 24.24C77.2477 23.0267 77.1637 21.2907 77.1637 19.032C77.1637 16.7733 77.2477 15.0467 77.4157 13.852C77.6024 12.6387 78.013 11.64 78.6477 10.856C79.7304 9.512 81.1864 8.84 83.0157 8.84C84.845 8.84 86.301 9.512 87.3837 10.856C88.0184 11.64 88.4197 12.6387 88.5877 13.852ZM84.3597 24.856C84.7144 24.1653 84.8917 22.224 84.8917 19.032C84.8917 15.84 84.7144 13.8987 84.3597 13.208C84.0984 12.6853 83.6504 12.424 83.0157 12.424C82.381 12.424 81.933 12.6853 81.6717 13.208C81.317 13.8987 81.1397 15.84 81.1397 19.032C81.1397 22.224 81.317 24.1653 81.6717 24.856C81.933 25.3787 82.381 25.64 83.0157 25.64C83.6504 25.64 84.0984 25.3787 84.3597 24.856ZM104.402 29H100.034L98.046 22.644L96.058 29H91.69L95.778 18.696L91.998 9.064H96.366L98.046 15.028L99.726 9.064H104.094L100.202 18.696L104.402 29Z" fill="#0F4C89"/>
<rect width="104" height="4" fill="#0F4C89"/>
</svg>
