<svg width="69" height="22" viewBox="0 0 69 22" fill="none" xmlns="http://www.w3.org/2000/svg">
<path d="M6.634 5.538C7.91 5.538 8.95133 5.98533 9.758 6.88C10.5647 7.77467 10.968 8.91133 10.968 10.29V17H8.658V10.642C8.658 9.77667 8.37933 9.06533 7.822 8.508C7.26467 7.936 6.57533 7.65 5.754 7.65C4.83 7.65 4.07467 7.936 3.488 8.508C2.90133 9.06533 2.608 9.77667 2.608 10.642V17H0.298V5.758H2.608V8.662C2.916 7.694 3.422 6.93133 4.126 6.374C4.84467 5.81667 5.68067 5.538 6.634 5.538ZM18.9239 5.538C20.3759 5.538 21.5859 6.10267 22.5539 7.232C23.5219 8.34667 24.0059 9.73267 24.0059 11.39C24.0059 13.0473 23.5219 14.4333 22.5539 15.548C21.5859 16.6627 20.3759 17.22 18.9239 17.22C17.8679 17.22 16.9439 16.912 16.1519 16.296C15.3746 15.6653 14.8099 14.8147 14.4579 13.744V21.4H12.1479V5.758H14.4579V9.014C14.8099 7.94333 15.3746 7.1 16.1519 6.484C16.9439 5.85333 17.8679 5.538 18.9239 5.538ZM18.1539 15.086C19.1219 15.086 19.9359 14.734 20.5959 14.03C21.2706 13.3113 21.6079 12.4313 21.6079 11.39C21.6079 10.334 21.2706 9.454 20.5959 8.75C19.9359 8.03133 19.1219 7.672 18.1539 7.672C17.0833 7.672 16.1959 8.024 15.4919 8.728C14.8026 9.432 14.4579 10.3193 14.4579 11.39C14.4579 12.446 14.8026 13.326 15.4919 14.03C16.1959 14.734 17.0833 15.086 18.1539 15.086ZM26.0043 15.548C24.8603 14.4333 24.2883 13.0473 24.2883 11.39C24.2883 9.73267 24.8603 8.34667 26.0043 7.232C27.1483 6.10267 28.5636 5.538 30.2503 5.538C31.937 5.538 33.3523 6.10267 34.4963 7.232C35.6403 8.34667 36.2123 9.73267 36.2123 11.39C36.2123 13.0473 35.6403 14.4333 34.4963 15.548C33.3523 16.6627 31.937 17.22 30.2503 17.22C28.5636 17.22 27.1483 16.6627 26.0043 15.548ZM27.6983 8.75C27.009 9.454 26.6643 10.334 26.6643 11.39C26.6643 12.446 27.009 13.326 27.6983 14.03C28.3876 14.734 29.2383 15.086 30.2503 15.086C31.277 15.086 32.1276 14.734 32.8023 14.03C33.4916 13.326 33.8363 12.446 33.8363 11.39C33.8363 10.3193 33.4916 9.432 32.8023 8.728C32.1276 8.024 31.277 7.672 30.2503 7.672C29.2383 7.672 28.3876 8.03133 27.6983 8.75ZM42.3555 5.538C44.1595 5.538 45.6261 6.18333 46.7555 7.474C47.8848 8.76467 48.3468 10.3267 48.1415 12.16H38.8355C38.9968 13.0693 39.4148 13.81 40.0895 14.382C40.7641 14.9393 41.5781 15.218 42.5315 15.218C43.2648 15.218 43.9175 15.042 44.4895 14.69C45.0761 14.3233 45.5308 13.832 45.8535 13.216L47.7895 14.074C47.2908 15.0273 46.5795 15.79 45.6555 16.362C44.7315 16.934 43.6681 17.22 42.4655 17.22C40.7788 17.22 39.3635 16.6627 38.2195 15.548C37.0755 14.4333 36.5035 13.0473 36.5035 11.39C36.5035 9.73267 37.0608 8.34667 38.1755 7.232C39.3048 6.10267 40.6981 5.538 42.3555 5.538ZM42.3555 7.54C41.5048 7.54 40.7641 7.804 40.1335 8.332C39.5175 8.84533 39.1068 9.52 38.9015 10.356H45.8095C45.6188 9.52 45.2081 8.84533 44.5775 8.332C43.9615 7.804 43.2208 7.54 42.3555 7.54ZM54.6832 10.444L59.8752 17H56.9492L53.1212 12.16L51.3612 14.052V17H49.0512V0.72H51.3612V11.016L56.1132 5.758H59.0172L54.6832 10.444ZM64.5719 17H62.2619V7.804H58.3899V5.758H68.4219V7.804H64.5719V17Z" fill="#C5C5C5"/>
</svg>
